<?xml version="1.0" encoding="UTF-8"?>
<svg xmlns="http://www.w3.org/2000/svg" viewBox="0 0 540 540">
  <defs>
    <style>
      .cls-1, .cls-2 {
        stroke-width: 0px;
      }

      .cls-1, .cls-3 {
        fill: #fff;
      }

      .cls-2 {
        fill: #231f20;
      }

      .cls-3 {
        stroke: #231f20;
        stroke-miterlimit: 10;
        stroke-width: 42px;
      }
    </style>
  </defs>
  <g id="Layer_3" data-name="Layer 3">
    <circle class="cls-1" cx="270" cy="270" r="270"/>
  </g>
  <g id="Layer_4" data-name="Layer 4">
    <circle class="cls-3" cx="270" cy="270" r="216.67"/>
  </g>
  <g id="Layer_2" data-name="Layer 2">
    <path class="cls-2" d="M179.04,348.25v-132c0-15.69-13.8-30.73-30-30s-30,13.18-30,30v132c0,15.69,13.8,30.73,30,30s30-13.18,30-30h0Z"/>
    <path class="cls-2" d="M179.04,216.25c.03-1.68.12-3.33.3-5l-1.07,7.98c.56-4.11,1.64-8.01,3.25-11.84l-3.02,7.17c1.39-3.06,3.24-5.7,4.92-8.58-4.15,7.07-3.49,4.35-1.53,2.15,1.13-1.27,2.33-2.49,3.58-3.65,2.21-2.05,6.92-4.15-1.04.55,1.14-.67,2.18-1.54,3.3-2.24,3.08-1.95,6.33-3.58,9.69-5.01l-7.17,3.02c5.36-2.15,10.86-3.63,16.57-4.52l-7.98,1.07c3.51-.47,6.99-.72,10.53-.75,15.69-.16,30.73-13.68,30-30s-13.19-30.17-30-30c-23.71.24-45.72,8.16-63.88,23.33-16.52,13.8-26.13,34.93-26.45,56.34-.24,15.7,13.97,30.72,30,30s29.75-13.18,30-30h0Z"/>
    <path class="cls-2" d="M300,216.25c-.32-21.39-9.93-42.55-26.45-56.34-18.17-15.16-40.16-23.09-63.88-23.33-15.7-.16-30.72,13.91-30,30s13.18,29.83,30,30c3.54.04,7.02.28,10.53.75l-7.98-1.07c5.71.89,11.21,2.36,16.57,4.52l-7.17-3.02c3.35,1.43,6.61,3.05,9.69,5.01,1.11.7,2.17,1.58,3.3,2.24-7.96-4.7-3.25-2.6-1.04-.55,1.25,1.16,2.45,2.38,3.58,3.65,1.82,2.04,2.95,5.51-1.53-2.15,1.69,2.88,3.53,5.51,4.92,8.58l-3.02-7.17c1.61,3.82,2.69,7.72,3.25,11.84l-1.07-7.98c.18,1.67.28,3.33.3,5,.24,15.68,13.63,30.73,30,30s30.25-13.19,30-30h0Z"/>
    <path class="cls-2" d="M360.37,325.92c-.03,1.68-.12,3.33-.3,5l1.07-7.98c-.56,4.11-1.64,8.01-3.25,11.84l3.02-7.17c-1.39,3.06-3.24,5.7-4.92,8.58,4.15-7.07,3.49-4.35,1.53-2.15-1.13,1.27-2.33,2.49-3.58,3.65-2.21,2.05-6.92,4.15,1.04-.55-1.14.67-2.18,1.54-3.3,2.24-3.08,1.95-6.33,3.58-9.69,5.01l7.17-3.02c-5.36,2.15-10.86,3.63-16.57,4.52l7.98-1.07c-3.51.47-6.99.72-10.53.75-15.69.16-30.73,13.68-30,30s13.19,30.17,30,30c23.71-.24,45.72-8.16,63.88-23.33,16.52-13.8,26.13-34.93,26.45-56.34.24-15.7-13.97-30.72-30-30s-29.75,13.18-30,30h0Z"/>
    <path class="cls-2" d="M239.7,325.92c.32,21.39,9.93,42.55,26.45,56.34,18.17,15.16,40.16,23.09,63.88,23.33,15.7.16,30.72-13.91,30-30s-13.18-29.83-30-30c-3.54-.04-7.02-.28-10.53-.75l7.98,1.07c-5.71-.89-11.21-2.36-16.57-4.52l7.17,3.02c-3.35-1.43-6.61-3.05-9.69-5.01-1.11-.7-2.17-1.58-3.3-2.24,7.96,4.7,3.25,2.6,1.04.55-1.25-1.16-2.45-2.38-3.58-3.65-1.82-2.04-2.95-5.51,1.53,2.15-1.69-2.88-3.53-5.51-4.92-8.58l3.02,7.17c-1.61-3.82-2.69-7.72-3.25-11.84l1.07,7.98c-.18-1.67-.28-3.33-.3-5-.24-15.68-13.63-30.73-30-30s-30.25,13.19-30,30h0Z"/>
    <path class="cls-2" d="M300,336.04v-120c0-15.69-13.8-30.73-30-30s-30,13.18-30,30v120c0,15.69,13.8,30.73,30,30s30-13.18,30-30h0Z"/>
    <path class="cls-2" d="M420.37,323.42v-132c0-15.69-13.8-30.73-30-30s-30,13.18-30,30v132c0,15.69,13.8,30.73,30,30s30-13.18,30-30h0Z"/>
  </g>
</svg>